<?xml version="1.0" encoding="utf-8"?>
<!-- Generator: Adobe Illustrator 19.2.1, SVG Export Plug-In . SVG Version: 6.00 Build 0)  -->
<svg version="1.1" id="Layer_3" xmlns="http://www.w3.org/2000/svg" xmlns:xlink="http://www.w3.org/1999/xlink" x="0px" y="0px"
	 viewBox="0 0 64 64" style="enable-background:new 0 0 64 64;" xml:space="preserve">
<style type="text/css">
	.st0{fill:#008EDB;}
</style>
<g id="Layer_2_1_">
</g>
<path class="st0" d="M32,2C15.4,2,2,15.4,2,32s13.4,30,30,30s30-13.4,30-30S48.6,2,32,2z M32,61C16,61,3,48,3,32S16,3,32,3
	s29,13,29,29S48,61,32,61z"/>
<path class="st0" d="M48,17H28c-1.3,0-2,0.7-2,2v4H15c-1.3,0-2,0.7-2,2v14c0,1.3,0.7,2,2,2h2v6l7-6h11c1.3,0,2-0.7,2-2v-4h2l7,6v-6
	h2c1.3,0,2-0.7,2-2V19C50,17.7,49.3,17,48,17z M36,39c0,0.7-0.3,1-1,1H24h-0.4l-0.3,0.2L18,44.8V41v-1h-1h-2c-0.7,0-1-0.3-1-1V25
	c0-0.7,0.3-1,1-1h20c0.7,0,1,0.3,1,1V39z M49,33c0,0.7-0.3,1-1,1h-3v4.8l-5.3-4.6L39.4,34H37v-9c0-1.3-0.7-2-2-2h-8v-4
	c0-0.7,0.3-1,1-1h20c0.7,0,1,0.3,1,1V33z"/>
<circle class="st0" cx="20" cy="32" r="1"/>
<circle class="st0" cx="25" cy="32" r="1"/>
<circle class="st0" cx="30" cy="32" r="1"/>
</svg>
